<svg version="1.1" id="el_BISf9OYp5" xmlns="http://www.w3.org/2000/svg" xmlns:xlink="http://www.w3.org/1999/xlink" x="0px" y="0px" viewBox="0 0 600 600" style="enable-background:new 0 0 600 600;" xml:space="preserve"><style>@-webkit-keyframes el_CBkljdmtQCp_Animation{70%{opacity: 1;}80%{opacity: 1;}86.67%{opacity: 0;}0%{opacity: 1;}100%{opacity: 0;}}@keyframes el_CBkljdmtQCp_Animation{70%{opacity: 1;}80%{opacity: 1;}86.67%{opacity: 0;}0%{opacity: 1;}100%{opacity: 0;}}@-webkit-keyframes el_CBkljdmtQCp_knAAiFdYq_Animation{70%{-webkit-transform: translate(0px, 0px);transform: translate(0px, 0px);}100%{-webkit-transform: translate(0px, -10px);transform: translate(0px, -10px);}0%{-webkit-transform: translate(0px, 0px);transform: translate(0px, 0px);}}@keyframes el_CBkljdmtQCp_knAAiFdYq_Animation{70%{-webkit-transform: translate(0px, 0px);transform: translate(0px, 0px);}100%{-webkit-transform: translate(0px, -10px);transform: translate(0px, -10px);}0%{-webkit-transform: translate(0px, 0px);transform: translate(0px, 0px);}}@-webkit-keyframes el_CBkljdmtQCp_YTzsymxwQ_Animation{70%{-webkit-transform: scale(1, 1);transform: scale(1, 1);}100%{-webkit-transform: scale(1, 1.3);transform: scale(1, 1.3);}0%{-webkit-transform: scale(1, 1);transform: scale(1, 1);}}@keyframes el_CBkljdmtQCp_YTzsymxwQ_Animation{70%{-webkit-transform: scale(1, 1);transform: scale(1, 1);}100%{-webkit-transform: scale(1, 1.3);transform: scale(1, 1.3);}0%{-webkit-transform: scale(1, 1);transform: scale(1, 1);}}@-webkit-keyframes el_E2mXHV8FuKd_Animation{70%{opacity: 1;}80%{opacity: 0.8;}100%{opacity: 0;}0%{opacity: 1;}}@keyframes el_E2mXHV8FuKd_Animation{70%{opacity: 1;}80%{opacity: 0.8;}100%{opacity: 0;}0%{opacity: 1;}}@-webkit-keyframes el_E2mXHV8FuKd_mwCvtDA7b_Animation{70%{-webkit-transform: translate(0px, 0px);transform: translate(0px, 0px);}100%{-webkit-transform: translate(0px, -120px);transform: translate(0px, -120px);}0%{-webkit-transform: translate(0px, 0px);transform: translate(0px, 0px);}}@keyframes el_E2mXHV8FuKd_mwCvtDA7b_Animation{70%{-webkit-transform: translate(0px, 0px);transform: translate(0px, 0px);}100%{-webkit-transform: translate(0px, -120px);transform: translate(0px, -120px);}0%{-webkit-transform: translate(0px, 0px);transform: translate(0px, 0px);}}#el_BISf9OYp5 *{-webkit-animation-duration: 1s;animation-duration: 1s;-webkit-animation-iteration-count: infinite;animation-iteration-count: infinite;-webkit-animation-timing-function: cubic-bezier(0, 0, 1, 1);animation-timing-function: cubic-bezier(0, 0, 1, 1);}#el_aIwm1HDWZJ{fill: #FFFFFF;}#el_lC_QRrGxf1{fill: #89B3FB;}#el_ZhTcpvX2xs{fill: #5B84F7;}#el_Lf4JM58Os4{fill: #FFFFFF;}#el_QVTVoSvwPc{fill: #5B84F7;}#el_2osyUAnP9n{fill: #5B84F7;}#el_doJvYvBl-u{fill: #FFFFFF;}#el_AFrQh69L3w{fill: #5B84F7;}#el_PmLBZu4FDX{fill: #FFFFFF;}#el_sXMGFIiu-S{fill: #FFFFFF;}#el_rUEvTOvOnB{fill: #FFFFFF;}#el_yHPcBpRkgl{fill: #FFFFFF;}#el_vAlCGVuE_q{fill: #5B84F7;}#el_j4ojN-TwMEz{fill: #5B84F7;}#el_k-ftjl60nyF{-webkit-clip-path: url(#SVGID_2_);clip-path: url(#SVGID_2_);fill: #5B84F7;}#el_3yUdlNejT6K{-webkit-clip-path: url(#SVGID_2_);clip-path: url(#SVGID_2_);fill: #FFFFFF;}#el_wjMU7bGApMI{-webkit-clip-path: url(#SVGID_2_);clip-path: url(#SVGID_2_);fill: #5B84F7;}#el_O7lWlNC_8cF{-webkit-clip-path: url(#SVGID_2_);clip-path: url(#SVGID_2_);fill: #5B84F7;}#el_sqHj26WeTUY{-webkit-clip-path: url(#SVGID_2_);clip-path: url(#SVGID_2_);fill: #FFFFFF;}#el_FAl6OeQYsP8{fill: #FFFFFF;}#el_fiYZh8xDurD{fill: #1E3165;}#el_NJ-kkFufwP_{fill: #1E3165;}#el_Ji-Ergpx6Zi{fill: #1E3165;}#el_-WiptuiZ9_i{fill: #1E3165;}#el_UuwCBVjGLUQ{fill: #1E3165;}#el_DsPtIDYuvro{fill: #1E3165;}#el_9Qp92dTwfRn{fill: #1E3165;}#el_LrH62L6ObqJ{fill: #1E3165;}#el_8_FMMCTais2{fill: #1E3165;}#el_K_NOc2iBV9q{fill: #1E3165;}#el_p90IdcirogX{fill: #1E3165;}#el_canSJK7aCIa{fill: #1E3165;}#el_BEPo2CiNlKf{fill: #1E3165;}#el_ILsi-qJlGd9{fill: #1E3165;}#el_ms8KExMEFii{fill: #1E3165;}#el_FCppQassdiZ{fill: #1E3165;}#el_9yxPvZaqIAM{fill: #1E3165;}#el_NGn6nl82wDm{fill: #1E3165;}#el_JT7Qe3pHkPE{fill: #1E3165;}#el_l0JzDLUapsy{fill: #1E3165;}#el_QNYEIJImNOz{fill: #1E3165;}#el_zk_ZELNKZ4X{fill: #1E3165;}#el_DF1IBulKywF{fill: #1E3165;}#el_i68FZibAK7F{fill: #1E3165;}#el_mT5OSJZOLy4{fill: #1E3165;}#el_mT5OSJZOLy4_LbNYvVqXh{-webkit-transform-origin: 50% 50%;transform-origin: 50% 50%;transform-box: fill-box;}#el_E2mXHV8FuKd_mwCvtDA7b{-webkit-animation-name: el_E2mXHV8FuKd_mwCvtDA7b_Animation;animation-name: el_E2mXHV8FuKd_mwCvtDA7b_Animation;-webkit-transform-origin: 50% 50%;transform-origin: 50% 50%;transform-box: fill-box;-webkit-animation-timing-function: cubic-bezier(0.42, 0, 1, 1);animation-timing-function: cubic-bezier(0.42, 0, 1, 1);}#el_E2mXHV8FuKd{-webkit-animation-name: el_E2mXHV8FuKd_Animation;animation-name: el_E2mXHV8FuKd_Animation;}#el_CBkljdmtQCp_YTzsymxwQ{-webkit-animation-name: el_CBkljdmtQCp_YTzsymxwQ_Animation;animation-name: el_CBkljdmtQCp_YTzsymxwQ_Animation;-webkit-transform-origin: 50% 50%;transform-origin: 50% 50%;transform-box: fill-box;-webkit-animation-timing-function: cubic-bezier(0.42, 0, 1, 1);animation-timing-function: cubic-bezier(0.42, 0, 1, 1);}#el_CBkljdmtQCp_knAAiFdYq{-webkit-animation-name: el_CBkljdmtQCp_knAAiFdYq_Animation;animation-name: el_CBkljdmtQCp_knAAiFdYq_Animation;-webkit-transform-origin: 50% 50%;transform-origin: 50% 50%;transform-box: fill-box;-webkit-animation-timing-function: cubic-bezier(0.42, 0, 1, 1);animation-timing-function: cubic-bezier(0.42, 0, 1, 1);}#el_CBkljdmtQCp{-webkit-animation-name: el_CBkljdmtQCp_Animation;animation-name: el_CBkljdmtQCp_Animation;-webkit-animation-timing-function: cubic-bezier(0.42, 0, 1, 1);animation-timing-function: cubic-bezier(0.42, 0, 1, 1);}</style>

<g id="el_oFLJZrbL9P">
	<path d="M261.3,88.7l-210.8,51C20.8,146.8,0,173.3,0,203.7v179.4c0,29.1,19,54.7,46.9,63.1l205.5,62.1&#10;&#9;&#9;c31.1,9.4,64.3,9.4,95.4,0l205.5-62.1c27.8-8.4,46.9-34,46.9-63.1V203.7c0-30.4-20.8-56.9-50.4-64.1l-210.8-51&#10;&#9;&#9;C313.3,82.5,286.7,82.5,261.3,88.7z" id="el_aIwm1HDWZJ"/>
	<path d="M300,493.8c-14.1,0-28-2.1-41.5-6.1L53.1,425.6c-18.9-5.7-31.6-22.8-31.6-42.5V203.7c0-20.6,14-38.3,34-43.2&#10;&#9;&#9;l210.8-51c11-2.7,22.3-4,33.7-4s22.7,1.3,33.7,4l210.8,51c20,4.8,34,22.6,34,43.2v179.4c0,19.7-12.7,36.8-31.6,42.5l-205.5,62.1&#10;&#9;&#9;C328,491.8,314.1,493.8,300,493.8z" id="el_lC_QRrGxf1"/>
	<g id="el_oWGhNZmkoI">
		<circle cx="195.4" cy="150.9" r="9.2" id="el_ZhTcpvX2xs"/>
		<circle cx="406.2" cy="434" r="10.8" id="el_Lf4JM58Os4"/>
		<circle cx="96.9" cy="278.6" r="6.2" id="el_QVTVoSvwPc"/>
		<circle cx="186.2" cy="255.5" r="6.2" id="el_2osyUAnP9n"/>
		<circle cx="173.8" cy="420.2" r="6.2" id="el_doJvYvBl-u"/>
		<circle cx="440" cy="346.3" r="6.2" id="el_AFrQh69L3w"/>
		<circle cx="406.2" cy="157.1" r="6.2" id="el_PmLBZu4FDX"/>
		<circle cx="521.5" cy="301.7" r="6.2" id="el_sXMGFIiu-S"/>
		<circle cx="113.8" cy="201.7" r="16.9" id="el_rUEvTOvOnB"/>
		<circle cx="487.7" cy="374" r="16.9" id="el_yHPcBpRkgl"/>
		<circle cx="120" cy="360.2" r="26.2" id="el_vAlCGVuE_q"/>
		<circle cx="498.5" cy="230.9" r="33.8" id="el_j4ojN-TwMEz"/>
	</g>
	<g id="el_CBkljdmtQCp_knAAiFdYq" data-animator-group="true" data-animator-type="0"><g id="el_CBkljdmtQCp_YTzsymxwQ" data-animator-group="true" data-animator-type="2"><g id="el_CBkljdmtQCp">
		<defs>
			<path id="SVGID_1_" d="M300,493.8c-14.1,0-28-2.1-41.5-6.1L53.1,425.6c-18.9-5.7-31.6-22.8-31.6-42.5V203.7&#10;&#9;&#9;&#9;&#9;c0-20.6,14-38.3,34-43.2l210.8-51c11-2.7,22.3-4,33.7-4s22.7,1.3,33.7,4l210.8,51c20,4.8,34,22.6,34,43.2v179.4&#10;&#9;&#9;&#9;&#9;c0,19.7-12.7,36.8-31.6,42.5l-205.5,62.1C328,491.8,314.1,493.8,300,493.8z"/>
		</defs>
		<clipPath id="SVGID_2_">
			<use xlink:href="#SVGID_1_" style="overflow:visible;"/>
		</clipPath>
		<rect x="213.8" y="385.3" width="35.7" height="111.2" id="el_k-ftjl60nyF"/>
		<rect x="249.5" y="385.3" width="35.7" height="111.2" id="el_3yUdlNejT6K"/>
		<rect x="285.2" y="385.3" width="33.1" height="111.2" id="el_wjMU7bGApMI"/>
		<rect x="351.5" y="385.3" width="33.1" height="111.2" id="el_O7lWlNC_8cF"/>
		<rect x="318.3" y="385.3" width="33.1" height="111.2" id="el_sqHj26WeTUY"/>
	</g></g></g>
</g>
<g id="el_E2mXHV8FuKd_mwCvtDA7b" data-animator-group="true" data-animator-type="0"><g id="el_E2mXHV8FuKd">
	<path d="M299.2,450.9c-29.9,0-58.6-11-80.8-31v-19.8l-1.1-1.3c-13-15.5-21.3-34.1-24-54.1h7.4V314h-7.2&#10;&#9;&#9;c2.3-14.9,7.5-28.8,15.6-41.5l0.3-0.4l48-125.8h20.2v53.8h43.1v-53.8H341l37.8,98.9l8.9-1.6v-2.4l0.1-0.3l8.8-19.2h15.9l9,19.4&#10;&#9;&#9;v45.7l-20.6,10.1l1.1,3.7c1.3,4.5,2.3,9,3,13.4h-5.7v30.8h5.9c-2.7,19.9-11,38.6-24,54.1l-1.1,1.3v19.8&#10;&#9;&#9;C357.8,439.9,329.1,450.9,299.2,450.9z" id="el_FAl6OeQYsP8"/>
	<g id="el_Ym14nwPF59l">
		<circle cx="260.8" cy="185.5" r="6.2" id="el_fiYZh8xDurD"/>
		<circle cx="247.7" cy="215.5" r="6.2" id="el_NJ-kkFufwP_"/>
		<circle cx="337.7" cy="185.5" r="6.2" id="el_Ji-Ergpx6Zi"/>
		<circle cx="350.8" cy="215.5" r="6.2" id="el_-WiptuiZ9_i"/>
		<circle cx="247.7" cy="329.4" r="6.2" id="el_UuwCBVjGLUQ"/>
		<path d="M310.4,322.4c-0.5-1.1-1.5-1.9-2.7-2.1v-11.6c0-2.1-1.7-3.8-3.8-3.8c-2.1,0-3.8,1.7-3.8,3.8v11.5h-3.1v-11.5&#10;&#9;&#9;&#9;c0-2.1-1.7-3.8-3.8-3.8c-2.1,0-3.8,1.7-3.8,3.8v11.6c-1.2,0.2-2.2,1-2.7,2.1l-9.2,20c-0.5,1.2-0.5,2.6,0.3,3.7&#10;&#9;&#9;&#9;c0.7,1.1,1.9,1.8,3.2,1.8h35.4c1.3,0,2.5-0.7,3.2-1.8c0.7-1.1,0.8-2.5,0.3-3.7L310.4,322.4z M286.8,340.2l5.7-12.3h12l5.7,12.3&#10;&#9;&#9;&#9;H286.8z" id="el_DsPtIDYuvro"/>
		<path d="M333.1,384c0-6.4-5.2-11.5-11.5-11.5c-5.6,0-10.3,4-11.3,9.3c-1.9-3.7-5.8-6.2-10.2-6.2s-8.3,2.5-10.2,6.2&#10;&#9;&#9;&#9;c-1.1-5.3-5.7-9.3-11.3-9.3c-6.4,0-11.5,5.2-11.5,11.5c0,6.4,5.2,11.5,11.5,11.5c4.4,0,8.3-2.5,10.2-6.2c1.1,5.3,5.7,9.3,11.3,9.3&#10;&#9;&#9;&#9;s10.3-4,11.3-9.3c1.9,3.7,5.8,6.2,10.2,6.2C327.9,395.5,333.1,390.4,333.1,384z M278.5,387.8c-2.1,0-3.8-1.7-3.8-3.8&#10;&#9;&#9;&#9;s1.7-3.8,3.8-3.8c2.1,0,3.8,1.7,3.8,3.8S280.6,387.8,278.5,387.8z M300,390.9c-2.1,0-3.8-1.7-3.8-3.8c0-2.1,1.7-3.8,3.8-3.8&#10;&#9;&#9;&#9;c2.1,0,3.8,1.7,3.8,3.8C303.8,389.2,302.1,390.9,300,390.9z M317.7,384c0-2.1,1.7-3.8,3.8-3.8s3.8,1.7,3.8,3.8s-1.7,3.8-3.8,3.8&#10;&#9;&#9;&#9;S317.7,386.1,317.7,384z" id="el_9Qp92dTwfRn"/>
		<path d="M300,401.7c-6.4,0-11.5,5.2-11.5,11.5c0,6.4,5.2,11.5,11.5,11.5s11.5-5.2,11.5-11.5&#10;&#9;&#9;&#9;C311.5,406.9,306.4,401.7,300,401.7z M300,417.1c-2.1,0-3.8-1.7-3.8-3.8c0-2.1,1.7-3.8,3.8-3.8c2.1,0,3.8,1.7,3.8,3.8&#10;&#9;&#9;&#9;C303.8,415.4,302.1,417.1,300,417.1z" id="el_LrH62L6ObqJ"/>
		<path d="M273.1,397.1c-6.4,0-11.5,5.2-11.5,11.5c0,6.4,5.2,11.5,11.5,11.5c6.4,0,11.5-5.2,11.5-11.5&#10;&#9;&#9;&#9;C284.6,402.3,279.4,397.1,273.1,397.1z M273.1,412.5c-2.1,0-3.8-1.7-3.8-3.8s1.7-3.8,3.8-3.8c2.1,0,3.8,1.7,3.8,3.8&#10;&#9;&#9;&#9;S275.2,412.5,273.1,412.5z" id="el_8_FMMCTais2"/>
		<path d="M326.9,397.1c-6.4,0-11.5,5.2-11.5,11.5c0,6.4,5.2,11.5,11.5,11.5c6.4,0,11.5-5.2,11.5-11.5&#10;&#9;&#9;&#9;C338.5,402.3,333.3,397.1,326.9,397.1z M326.9,412.5c-2.1,0-3.8-1.7-3.8-3.8s1.7-3.8,3.8-3.8c2.1,0,3.8,1.7,3.8,3.8&#10;&#9;&#9;&#9;S329,412.5,326.9,412.5z" id="el_K_NOc2iBV9q"/>
		<path d="M249.2,399.3c-12.1-8.8-21.8-20.6-27.9-34.2c-0.9-1.9-3.1-2.8-5.1-1.9c-1.9,0.9-2.8,3.1-1.9,5.1&#10;&#9;&#9;&#9;c6.7,14.8,17.2,27.7,30.4,37.3c0.7,0.5,1.5,0.7,2.3,0.7c1.2,0,2.4-0.6,3.1-1.6C251.3,403,250.9,400.6,249.2,399.3z" id="el_p90IdcirogX"/>
		<path d="M382.3,362.9c-1.9-0.9-4.2,0-5.1,1.9c-6.1,13.7-15.7,25.6-27.9,34.4c-1.7,1.2-2.1,3.7-0.9,5.4&#10;&#9;&#9;&#9;c0.8,1,1.9,1.6,3.1,1.6c0.8,0,1.6-0.2,2.3-0.7c13.2-9.6,23.8-22.6,30.4-37.5C385.1,366.1,384.3,363.8,382.3,362.9z" id="el_canSJK7aCIa"/>
		<path d="M330.1,250.5c10.3,4,19.6,9.9,27.7,17.5c0.7,0.7,1.7,1,2.6,1c1,0,2-0.4,2.8-1.2c1.5-1.5,1.4-4-0.2-5.4&#10;&#9;&#9;&#9;c-8.8-8.3-18.9-14.7-30.1-19c-2-0.8-4.2,0.2-5,2.2C327.1,247.5,328.1,249.7,330.1,250.5z" id="el_BEPo2CiNlKf"/>
		<path d="M224.1,281.9c0.7,0.5,1.4,0.7,2.2,0.7c1.2,0,2.4-0.6,3.1-1.6c8.7-12.3,20.4-22.1,34-28.4&#10;&#9;&#9;&#9;c1.9-0.9,2.8-3.2,1.9-5.1c-0.9-1.9-3.2-2.8-5.1-1.9c-14.8,6.8-27.6,17.5-37.1,30.9C221.9,278.3,222.3,280.7,224.1,281.9z" id="el_ILsi-qJlGd9"/>
		<path d="M214.2,302.8c0.4,0.2,0.9,0.2,1.3,0.2c1.6,0,3-1,3.6-2.5c0.9-2.5,2-5,3.1-7.3c0.9-1.9,0.1-4.2-1.8-5.1&#10;&#9;&#9;&#9;c-1.9-0.9-4.2-0.1-5.1,1.8c-1.3,2.6-2.4,5.3-3.4,8C211.2,299.8,212.2,302,214.2,302.8z" id="el_ms8KExMEFii"/>
		<path d="M256.1,355.2l-21.5,5.8c-1.3,0.4-2.4,1.4-2.7,2.7c-0.4,1.3,0,2.7,1,3.7l15.8,15.8c0.7,0.7,1.7,1.1,2.7,1.1&#10;&#9;&#9;&#9;c0.3,0,0.7,0,1-0.1c1.3-0.4,2.4-1.4,2.7-2.7l5.8-21.5c0.4-1.3,0-2.7-1-3.7C258.8,355.2,257.4,354.9,256.1,355.2z M249.3,373&#10;&#9;&#9;&#9;l-6.3-6.3l8.7-2.3L249.3,373z" id="el_FCppQassdiZ"/>
		<path d="M387.3,283.8c-0.9-1.9-3.2-2.7-5.2-1.8l-6.2,3.1c-1.9,0.9-2.7,3.2-1.8,5.1c0.7,1.4,2,2.1,3.5,2.1&#10;&#9;&#9;&#9;c0.6,0,1.1-0.1,1.7-0.4l6.2-3.1C387.5,288.1,388.2,285.7,387.3,283.8z" id="el_9yxPvZaqIAM"/>
		<path d="M361.4,292.3l-21.4,10.6c-1.9,0.9-2.7,3.2-1.8,5.2c0.7,1.4,2,2.1,3.5,2.1c0.6,0,1.1-0.1,1.7-0.4l21.4-10.6&#10;&#9;&#9;&#9;c1.9-0.9,2.7-3.2,1.8-5.2C365.6,292.2,363.3,291.4,361.4,292.3z" id="el_NGn6nl82wDm"/>
		<path d="M350.8,381.2c1.4-1.6,2.8-3.2,4.1-4.9c1.3-1.7,0.9-4.1-0.8-5.4c-1.7-1.3-4.1-0.9-5.4,0.8&#10;&#9;&#9;&#9;c-1.1,1.5-2.4,3-3.6,4.4c-1.4,1.6-1.3,4,0.3,5.4c0.7,0.7,1.7,1,2.6,1C349,382.4,350,382,350.8,381.2z" id="el_JT7Qe3pHkPE"/>
		<path d="M237.3,277.7c-1.5,3.8,0.9,7.7,5,10.8l-2.7,5.8c-0.5,1-0.5,2.1-0.1,3c0.4,1,1.2,1.8,2.1,2.2l8.6,3.5&#10;&#9;&#9;&#9;c0.5,0.2,1,0.3,1.4,0.3c1.4,0,2.8-0.8,3.5-2.2l3-6.3c0.7,0.1,1.5,0.1,2.2,0.1c4,0,7.3-1.3,8.6-4.5c0,0,0,0,0,0&#10;&#9;&#9;&#9;c2.4-5.9-4.7-11.8-12.3-14.9C248.9,272.4,239.7,271.8,237.3,277.7z M260.9,287.1c-1.7,0.1-4.7-0.2-8.4-1.7&#10;&#9;&#9;&#9;c-3.7-1.5-6.1-3.3-7.2-4.6c1.7-0.1,4.7,0.2,8.4,1.7C257.3,284.1,259.7,285.9,260.9,287.1z" id="el_l0JzDLUapsy"/>
		<path d="M292.3,257.8c2.1,0,3.8-1.7,3.8-3.8v-24.6c0-2.1-1.7-3.8-3.8-3.8c-2.1,0-3.8,1.7-3.8,3.8V254&#10;&#9;&#9;&#9;C288.5,256.1,290.2,257.8,292.3,257.8z" id="el_QNYEIJImNOz"/>
		<path d="M293.1,262.5c-2.1,0-3.8,1.7-3.8,3.8v12.3c0,2.1,1.7,3.8,3.8,3.8c2.1,0,3.8-1.7,3.8-3.8v-12.3&#10;&#9;&#9;&#9;C296.9,264.2,295.2,262.5,293.1,262.5z" id="el_zk_ZELNKZ4X"/>
		<path d="M305,250.2c-2.1,0-3.8,1.7-3.8,3.8v24.6c0,2.1,1.7,3.8,3.8,3.8s3.8-1.7,3.8-3.8V254&#10;&#9;&#9;&#9;C308.8,251.9,307.1,250.2,305,250.2z" id="el_DF1IBulKywF"/>
		<path d="M304.2,245.5c2.1,0,3.8-1.7,3.8-3.8v-12.3c0-2.1-1.7-3.8-3.8-3.8s-3.8,1.7-3.8,3.8v12.3&#10;&#9;&#9;&#9;C300.4,243.8,302.1,245.5,304.2,245.5z" id="el_i68FZibAK7F"/>
	</g>
	<path d="M426.1,240.4c0-0.1,0-0.1,0-0.2c-0.1-0.3-0.1-0.6-0.3-0.8c0,0,0,0,0,0l-9.2-20c-0.6-1.4-2-2.2-3.5-2.2h-16.9&#10;&#9;&#9;c-1.5,0-2.9,0.9-3.5,2.2l-9.2,20c0,0,0,0,0,0c-0.1,0.3-0.2,0.6-0.3,0.8c0,0.1,0,0.1,0,0.2c0,0.2-0.1,0.4-0.1,0.5v2.6l-37.9-99.4&#10;&#9;&#9;c-0.6-1.5-2-2.5-3.6-2.5H320c-2.1,0-3.8,1.7-3.8,3.8v50h-33.8v-50c0-2.1-1.7-3.8-3.8-3.8h-21.5c-1.6,0-3,1-3.6,2.5l-48,125.8&#10;&#9;&#9;c-8.4,13.1-14.1,28.1-16.4,44.2c-0.2,1.1,0.2,2.2,0.9,3.1c0.7,0.8,1.8,1.3,2.9,1.3h3.5v21.5h-3.7c-1.1,0-2.2,0.5-2.9,1.3&#10;&#9;&#9;c-0.7,0.8-1.1,1.9-0.9,3c2.8,21.8,11.9,41.4,25.2,57.3v18.5c0,1.1,0.5,2.1,1.3,2.9c23.1,20.9,53,32.4,84.1,32.4&#10;&#9;&#9;c31.2,0,61-11.5,84.1-32.4c0.8-0.7,1.3-1.8,1.3-2.9v-18.5c13.3-15.9,22.4-35.5,25.2-57.3c0.1-1.1-0.2-2.2-0.9-3&#10;&#9;&#9;c-0.7-0.8-1.8-1.3-2.9-1.3h-2.2v-21.5h2c1.1,0,2.2-0.5,2.9-1.3c0.7-0.8,1.1-2,0.9-3.1c-0.7-5-1.8-10-3.2-14.9l17.5-8.6&#10;&#9;&#9;c0.7-0.4,1.3-1,1.7-1.7c0-0.1,0.1-0.2,0.1-0.2c0.1-0.1,0.1-0.3,0.2-0.4c0.2-0.4,0.3-0.9,0.3-1.4v-46.2&#10;&#9;&#9;C426.2,240.7,426.1,240.6,426.1,240.4z M398.6,224.8h12l5.7,12.3h-23.4L398.6,224.8z M323.8,214.8v-15.4v-50h15l38.7,101.5&#10;&#9;&#9;c-5.5-5.4-11.5-10.2-17.9-14.4c-0.1-0.1-0.2-0.1-0.3-0.2c-0.9-0.6-1.9-1.2-2.8-1.7c-0.3-0.2-0.6-0.4-1-0.6c-0.9-0.5-1.8-1-2.7-1.5&#10;&#9;&#9;c-0.3-0.2-0.7-0.4-1-0.6c-1.5-0.8-2.9-1.5-4.4-2.3c-0.6-0.3-1.3-0.6-1.9-0.9c-0.7-0.3-1.4-0.6-2-0.9c-0.7-0.3-1.5-0.6-2.2-0.9&#10;&#9;&#9;c-0.6-0.3-1.2-0.5-1.9-0.8c-1-0.4-1.9-0.7-2.9-1.1c-0.4-0.2-0.9-0.3-1.3-0.5c-1.4-0.5-2.8-0.9-4.2-1.3c-0.4-0.1-0.9-0.3-1.3-0.4&#10;&#9;&#9;c-1.1-0.3-2.1-0.6-3.2-0.9c-0.5-0.1-1-0.2-1.5-0.4c-0.4-0.1-0.8-0.2-1.1-0.3V214.8z M323.8,229.3&#10;&#9;&#9;C323.9,229.3,323.9,229.3,323.8,229.3c0.1,0,0.1,0,0.1,0c1.4,0.3,2.8,0.7,4.3,1.1c0.4,0.1,0.8,0.2,1.1,0.4c1.1,0.3,2.1,0.7,3.2,1&#10;&#9;&#9;c0.4,0.1,0.8,0.3,1.3,0.4c1,0.4,2,0.7,3,1.1c0.4,0.1,0.8,0.3,1.1,0.5c1.1,0.4,2.1,0.9,3.2,1.3c0.3,0.1,0.6,0.3,0.9,0.4&#10;&#9;&#9;c1.2,0.5,2.4,1.1,3.6,1.7c0.1,0.1,0.3,0.1,0.4,0.2c12.5,6.3,23.6,15.1,32.7,26l-54.9,27V229.3z M282.3,203.2h33.8v7.7h-33.8V203.2z&#10;&#9;&#9; M282.3,224.5v-5.9h33.8v5.9v67.8c-5.2-2.4-10.9-3.7-16.9-3.7s-11.8,1.3-16.9,3.7V224.5z M299.2,296.3c18.3,0,33.1,14.8,33.1,33.1&#10;&#9;&#9;c0,18.3-14.8,33.1-33.1,33.1s-33.1-14.8-33.1-33.1C266.2,311.1,281,296.3,299.2,296.3z M259.6,149.4h15v50v15.4v6.6&#10;&#9;&#9;c-0.2,0-0.4,0.1-0.6,0.1c-0.7,0.2-1.4,0.3-2,0.5c-0.6,0.2-1.2,0.3-1.8,0.5c-0.9,0.2-1.8,0.5-2.6,0.7c-0.3,0.1-0.6,0.2-0.9,0.3&#10;&#9;&#9;c-17.5,5.3-33.2,14.8-45.8,27.3L259.6,149.4z M211.7,274.2c0-0.1,0.1-0.1,0.1-0.2c13.3-20.7,33.7-36,57-43.2c0.1,0,0.2-0.1,0.3-0.1&#10;&#9;&#9;c1.5-0.5,3-0.9,4.5-1.3c0.1,0,0.3-0.1,0.4-0.1c0.1,0,0.3-0.1,0.4-0.1v67.6c-4.1,3.1-7.5,6.9-10.2,11.2c0,0.1-0.1,0.1-0.1,0.2&#10;&#9;&#9;c-0.3,0.5-0.5,0.9-0.8,1.4c-0.1,0.2-0.2,0.4-0.3,0.5c-0.1,0.2-0.3,0.5-0.4,0.7h-50.6H200h-2.8C199.7,297.6,204.7,285.2,211.7,274.2&#10;&#9;&#9;z M259.9,340.2h-43.8v-21.5h43.8c-0.9,3.4-1.5,7-1.5,10.8S259,336.7,259.9,340.2z M208.5,318.6v21.5h-4.6v-21.5H208.5z&#10;&#9;&#9; M376.9,418.6c-21.5,18.9-49,29.3-77.7,29.3c-28.7,0-56.2-10.4-77.7-29.3v-8.5c20.2,19.6,47.7,31.6,77.7,31.6&#10;&#9;&#9;c29.9,0,57.5-12,77.7-31.6V418.6z M299.2,434c-50.6,0-93.8-36.7-102.3-86.2h3.1h12.3h50.6c0.1,0.2,0.2,0.4,0.3,0.6&#10;&#9;&#9;c0.2,0.4,0.4,0.7,0.6,1.1c0.5,0.9,1,1.7,1.6,2.5c0,0.1,0.1,0.1,0.1,0.2c0.3,0.5,0.7,1,1,1.4c0.1,0.1,0.1,0.2,0.2,0.3&#10;&#9;&#9;c2.3,3.1,5.1,5.8,8.1,8.1c0,0,0,0,0,0c0.5,0.4,1,0.7,1.5,1c0.1,0.1,0.3,0.2,0.4,0.3c0.8,0.5,1.6,1,2.5,1.5c0.2,0.1,0.4,0.3,0.7,0.4&#10;&#9;&#9;c0.4,0.2,0.7,0.4,1.1,0.6c0.4,0.2,0.8,0.4,1.2,0.6c0.3,0.1,0.6,0.3,1,0.4c0.7,0.3,1.4,0.6,2.1,0.9c0.2,0.1,0.3,0.1,0.5,0.2&#10;&#9;&#9;c0.6,0.2,1.3,0.4,2,0.6c0.2,0.1,0.5,0.1,0.7,0.2c0.7,0.2,1.4,0.4,2.1,0.5c0.1,0,0.3,0.1,0.4,0.1c0.8,0.2,1.7,0.3,2.5,0.4&#10;&#9;&#9;c0.2,0,0.4,0,0.6,0.1c0.7,0.1,1.4,0.2,2,0.2c0.2,0,0.5,0,0.7,0.1c0.9,0.1,1.7,0.1,2.6,0.1s1.7,0,2.6-0.1c0.2,0,0.5,0,0.7-0.1&#10;&#9;&#9;c0.7-0.1,1.4-0.1,2-0.2c0.2,0,0.4,0,0.6-0.1c0.8-0.1,1.7-0.3,2.5-0.4c0.1,0,0.3-0.1,0.4-0.1c0.7-0.2,1.4-0.3,2.1-0.5&#10;&#9;&#9;c0.2-0.1,0.5-0.1,0.7-0.2c0.7-0.2,1.3-0.4,2-0.6c0.2-0.1,0.3-0.1,0.5-0.2c0.7-0.3,1.4-0.6,2.1-0.9c0.3-0.1,0.6-0.3,1-0.4&#10;&#9;&#9;c0.4-0.2,0.8-0.4,1.2-0.6c0.4-0.2,0.7-0.4,1.1-0.6c0.2-0.1,0.5-0.3,0.7-0.4c0.8-0.5,1.6-1,2.4-1.5c0.1-0.1,0.3-0.2,0.4-0.3&#10;&#9;&#9;c0.5-0.3,1-0.7,1.5-1c0,0,0,0,0,0c3.1-2.3,5.8-5,8.1-8.1c0.1-0.1,0.1-0.2,0.2-0.3c0.4-0.5,0.7-1,1-1.4c0-0.1,0.1-0.1,0.1-0.2&#10;&#9;&#9;c0.5-0.8,1.1-1.7,1.6-2.5c0.2-0.4,0.4-0.7,0.6-1.1c0.1-0.2,0.2-0.4,0.3-0.6h24.3c-0.8,3.3-1.8,6.5-3,9.5c-0.8,2,0.1,4.2,2.1,5&#10;&#9;&#9;c0.5,0.2,1,0.3,1.5,0.3c1.5,0,3-0.9,3.6-2.4c1.6-4,2.9-8.2,3.8-12.5h20H400h1.5C393.1,397.3,349.8,434,299.2,434z M353.7,325.1&#10;&#9;&#9;l13.3-6.5h16.9v21.5h-45.3c0.7-2.7,1.2-5.4,1.4-8.3l3.3-1.6c0.4,3,3,5.3,6.1,5.3c3.4,0,6.2-2.8,6.2-6.2&#10;&#9;&#9;C355.4,327.7,354.7,326.2,353.7,325.1z M387.7,310.9h-4.4l16.2-7.9c0.7,2.6,1.3,5.3,1.8,7.9H400H387.7z M396.2,318.6v21.5h-4.6&#10;&#9;&#9;v-21.5H396.2z M339.6,323.7c0-0.1,0-0.2-0.1-0.3c-0.1-0.9-0.3-1.8-0.5-2.7c-0.1-0.4-0.2-0.8-0.3-1.3c-0.2-0.7-0.4-1.5-0.6-2.2&#10;&#9;&#9;c-0.2-0.6-0.4-1.2-0.6-1.8c0-0.1-0.1-0.2-0.1-0.3c-2.2-6-5.9-11.4-10.7-15.8c-0.1-0.1-0.1-0.1-0.2-0.2c-0.3-0.3-0.5-0.5-0.8-0.8&#10;&#9;&#9;l60.9-30l0,0l28.3,18.4L339.6,323.7z M418.5,280l-27.7-18.1v-17.1h27.7V280z" id="el_mT5OSJZOLy4"/>
</g></g>
<script>(function(){var a=document.querySelector('#el_BISf9OYp5'),b=a.querySelectorAll('style'),c=function(d){b.forEach(function(f){var g=f.textContent;g&amp;&amp;(f.textContent=g.replace(/transform-box:[^;\r\n]*/gi,'transform-box: '+d))})};c('initial'),window.requestAnimationFrame(function(){return c('fill-box')})})();</script></svg>